<svg fill="#000000" xmlns="http://www.w3.org/2000/svg"  viewBox="0 0 24 24" width="50" height="50"><path d="M 12 0.25 C 5.51065 0.25 0.25 5.51065 0.25 12 C 0.25 18.4893 5.51065 23.75 12 23.75 C 18.4893 23.75 23.75 18.4893 23.75 12 C 23.75 5.51065 18.4893 0.25 12 0.25 z M 12 1.75 C 14.560645 1.75 16.896855 2.6936784 18.693359 4.2460938 L 16.439453 6.5 C 15.119527 5.7085556 13.612351 5.25 12 5.25 C 8.84786 5.25 6.0861969 6.9810606 4.3730469 9.5878906 C 4.1455569 9.9340506 4.2417306 10.399453 4.5878906 10.626953 C 4.9340406 10.854453 5.3994731 10.758309 5.6269531 10.412109 C 7.1062331 8.1611594 9.42727 6.75 12 6.75 C 13.185928 6.75 14.314722 7.0598154 15.335938 7.6035156 L 13.878906 9.0605469 C 13.282648 8.865238 12.65565 8.75 12 8.75 C 9.64849 8.75 7.6146244 10.105363 6.3652344 12.101562 C 6.1454844 12.452663 6.2504425 12.915066 6.6015625 13.134766 C 6.9526725 13.354566 7.4169588 13.249538 7.6367188 12.898438 C 8.6676388 11.251337 10.2623 10.25 12 10.25 C 12.216558 10.25 12.431252 10.266474 12.642578 10.296875 L 10.214844 12.724609 C 9.4810938 13.128966 8.8650457 13.764545 8.4140625 14.525391 L 4.2460938 18.693359 C 2.6936784 16.896855 1.75 14.560645 1.75 12 C 1.75 6.33908 6.33908 1.75 12 1.75 z M 19.753906 5.3066406 C 21.306324 7.1031434 22.25 9.4393459 22.25 12 C 22.25 17.6609 17.6609 22.25 12 22.25 C 9.4393459 22.25 7.1031434 21.306324 5.3066406 19.753906 L 11.068359 13.992188 C 11.371179 13.848742 11.682398 13.75 12 13.75 C 12.8807 13.75 13.754856 14.314887 14.347656 15.367188 C 14.550956 15.728088 15.008241 15.857597 15.369141 15.654297 C 15.730041 15.450997 15.857597 14.993712 15.654297 14.632812 C 15.002736 13.47607 13.972701 12.588271 12.728516 12.332031 L 14.222656 10.837891 C 15.05903 11.293903 15.799257 11.994246 16.365234 12.898438 C 16.584934 13.249538 17.047338 13.354566 17.398438 13.134766 C 17.749537 12.915066 17.856519 12.452663 17.636719 12.101562 C 17.032249 11.135708 16.239487 10.325233 15.320312 9.7402344 L 16.607422 8.453125 C 17.274669 8.9990825 17.874467 9.6534538 18.373047 10.412109 C 18.600547 10.758309 19.065909 10.854453 19.412109 10.626953 C 19.758209 10.399453 19.854353 9.9340506 19.626953 9.5878906 C 19.077773 8.7522501 18.410926 8.020091 17.667969 7.3925781 L 19.753906 5.3066406 z M 12 15.25 C 11.0335 15.25 10.25 16.0335 10.25 17 C 10.25 17.9665 11.0335 18.75 12 18.75 C 12.9665 18.75 13.75 17.9665 13.75 17 C 13.75 16.0335 12.9665 15.25 12 15.25 z"/></svg>